<svg height="174.233013" viewBox="0 0 55.797042 16.932154" width="573.944043" xmlns="http://www.w3.org/2000/svg" xmlns:xlink="http://www.w3.org/1999/xlink"><clipPath id="a"><path d="m0 0h234.99001v71.309998h-234.99001z"/></clipPath><g clip-path="url(#a)" transform="scale(.23744433)"><path d="m9 16.43c1.11-.6 1.77-1 2.18-3.21l2.1-7.65a.72.72 0 0 1 .8-.57c.35 0 .92.29 1 .61l1.69 9.37a1.73 1.73 0 0 0 3.41 0l1.67-9.37c.08-.32.64-.61 1-.61a.71.71 0 0 1 .77.61l2.1 7.65c.43 2.23 1.08 2.61 2.19 3.21 1.57.85 6.11.81 8.75.79a18.36 18.36 0 0 0 -36.66-.04c2.86 0 7.56 0 9-.79" fill="#50b848"/><path d="m27.9 20.3c-1.11.58-1.76.94-2.19 3.19l-1.88 7.65a1 1 0 0 1 -1 .62 1.22 1.22 0 0 1 -1-.62l-1.67-9.45a1.73 1.73 0 0 0 -3.41 0l-1.69 9.45c-.06.31-.63.61-1 .62a1 1 0 0 1 -1-.62l-1.86-7.65c-.41-2.25-1.07-2.61-2.18-3.19-1.46-.79-6.16-.82-9-.81a18.36 18.36 0 0 0 36.64.17c-2.65 0-7.17-.21-8.74.64" fill="#00b5df"/><g fill="#414042"><path d="m62.23 2.54c6.66 0 9.88 4 9.88 9 0 3.54-1.58 5.85-4 6.9 2.5 1.09 4 3.49 4 6.89 0 5-3.22 9-9.88 9h-13.66v-31.79zm-.23 7.71h-5.72v4.31h5.58c1.54 0 2.54-.81 2.54-2.22 0-1.18-.72-2.09-2.4-2.09m-.14 12h-5.58v4.31h5.72c1.68 0 2.4-.86 2.4-2.09 0-1.45-1-2.22-2.54-2.22"/><path d="m89.94 2.54a16.78 16.78 0 0 1 11.66 4.27l-3.77 7a10.26 10.26 0 0 0 -7.89-3.59 7.88 7.88 0 0 0 -8.25 8.17 7.85 7.85 0 0 0 8.21 8.16 10.73 10.73 0 0 0 8.43-4l3.9 7.12a17.63 17.63 0 0 1 -12.23 4.62 15.58 15.58 0 0 1 -16-15.92 15.51 15.51 0 0 1 16-15.83"/><path d="m130.4 22.27h-11.38v12.02h-7.71v-31.75h7.71v12.02h11.38v-12.02h7.71v31.75h-7.71z"/><path d="m148.54 11.61 4.9 10.8 4.76-10.8h7.67l-13.25 29.83h-7.62l4.68-10.55-9.59-19.28z"/><path d="m189.59 2.54v31.75h-7.26v-3.08a8.64 8.64 0 0 1 -7.3 3.67c-5.22 0-9.93-4-9.93-11.93s4.67-11.95 9.79-11.95a8.72 8.72 0 0 1 7.44 3.81v-12.27zm-17.05 20.46a4.94 4.94 0 1 0 4.94-4.76 4.68 4.68 0 0 0 -4.94 4.76"/><path d="m207 11.07a6.34 6.34 0 0 1 2.18.36v7.85a8.7 8.7 0 0 0 -2.95-.45c-3.26 0-5.17 1.49-5.17 5.44v10h-7.25v-22.66h7v4c1.13-2.72 3-4.49 6.21-4.49"/><path d="m222.6 11.07c7.08 0 12.4 4.63 12.4 11.93s-5.31 11.89-12.39 11.89-12.39-4.68-12.39-11.89 5.31-11.88 12.38-11.88m0 7.12a4.77 4.77 0 1 0 5 4.76 4.69 4.69 0 0 0 -5-4.76"/><path d="m56.38 49a7.4 7.4 0 0 1 0 14.8h-5v7.15h-2.81v-21.95zm0 2.82h-5v9.18h5a4.58 4.58 0 0 0 0-9.16"/><path d="m74 54.89a8.21 8.21 0 1 1 -8.21 8.21 8 8 0 0 1 8.21-8.21m0 2.6a5.26 5.26 0 0 0 -5.42 5.61 5.43 5.43 0 1 0 10.85 0 5.27 5.27 0 0 0 -5.43-5.61"/><path d="m90.85 66.89 4.76-11.63h1.95l4.76 11.63 4.45-11.63h3.07l-6.42 15.68h-2.07l-4.77-11.26-4.76 11.26h-2.07l-6.42-15.68h3.07z"/><path d="m118.8 54.89c4.92 0 7.52 3.57 7.52 8.21v.81h-12.54a4.88 4.88 0 0 0 5.14 4.85 6.38 6.38 0 0 0 5-2.41l1.41 2.1a8.32 8.32 0 0 1 -6.27 2.82c-4.74 0-8-3.13-8-8.09 0-4.6 3-8.33 7.75-8.33m0 2.5a4.62 4.62 0 0 0 -4.92 4.36h9.46c-.25-2.6-1.72-4.36-4.54-4.36"/><path d="m137.28 54.89a8.53 8.53 0 0 1 1.53.15v2.86a6.25 6.25 0 0 0 -1.57-.19c-3.51 0-4.6 2.38-4.6 5.92v7.3h-2.7v-15.67h2.6v2.35a5.13 5.13 0 0 1 4.74-2.72"/><path d="m156.44 54.89a6.53 6.53 0 0 1 6.2 3.38l-2.22 1.41a4.19 4.19 0 0 0 -4-2.29c-1.76 0-3.11.73-3.11 2 0 1.47 1.6 1.88 3.73 2.35 2.61.57 5.64 1.13 5.64 4.73 0 3.36-2.6 4.86-6 4.86-2.92 0-5.68-1.1-6.93-3.67l2.22-1.41a4.91 4.91 0 0 0 4.77 2.57c2 0 3.26-.68 3.26-2.16s-1.41-1.91-3.48-2.35c-2.57-.53-5.89-1.32-5.89-4.76 0-2.76 2.19-4.64 5.86-4.64"/><path d="m185 54.89c4.39 0 6.08 2.79 6.08 7v9h-2.73v-9.33c0-2.69-1.22-4.17-3.63-4.17-3.58 0-4.64 2.73-4.64 6.24v7.3h-2.7v-9.37c0-2.69-1.25-4.17-3.7-4.17-3.57 0-4.54 2.79-4.54 6.24v7.3h-2.7v-15.67h2.6v2.2a5.52 5.52 0 0 1 5-2.57 5.22 5.22 0 0 1 5.14 3.1 6.37 6.37 0 0 1 5.83-3.1"/><path d="m201.36 54.89c4.33 0 6.3 2.13 6.3 5.86v10.19h-2.66v-2.23a6 6 0 0 1 -5.14 2.54c-3.39 0-5.33-2.1-5.33-4.86 0-2.92 2.16-4.54 5-4.83l4.42-.43c.72-.07 1-.32 1-.85v-.41c0-1.54-1.16-2.57-3.48-2.57-2.16 0-3.7.88-4.05 2.82l-2.38-1.28c.6-2.32 2.51-4 6.3-4m3.66 8.6-5.11.63c-1.76.22-2.54 1.19-2.54 2.35 0 1.35 1 2.29 2.91 2.29 3 0 4.74-2.13 4.74-4.11z"/><path d="m219.51 54.89a8.65 8.65 0 0 1 1.54.15v2.86a6.37 6.37 0 0 0 -1.57-.19c-3.51 0-4.61 2.38-4.61 5.92v7.3h-2.69v-15.67h2.6v2.35a5.12 5.12 0 0 1 4.73-2.72"/><path d="m230.79 71.09c-2.86 0-4.33-1.22-4.33-4.54v-8.94h-3.1v-2.35h3.1v-4.2h2.7v4.2h4.29v2.35h-4.29v9.09c0 1.19.47 1.88 1.78 1.88a12.35 12.35 0 0 0 2.54-.25v2.38a9.7 9.7 0 0 1 -2.69.38"/></g></g></svg>